<svg xmlns="http://www.w3.org/2000/svg"  viewBox="0 0 24 24" width="24px" height="24px" fill-rule="evenodd" clip-rule="evenodd"><path fill="#1A237E" d="M 10.392578 1.2597656 C 5.2175781 2.0617656 1.25 6.5404531 1.25 11.939453 C 1.25 17.905453 6.0945469 22.75 12.060547 22.75 C 17.459547 22.75 21.938234 18.782422 22.740234 13.607422 C 22.791234 13.277422 22.620359 12.9535 22.318359 12.8125 C 22.017359 12.6705 21.6575 12.745141 21.4375 12.994141 C 20.0815 14.531141 18.099578 15.501953 15.892578 15.501953 C 11.811578 15.501953 8.4980469 12.188422 8.4980469 8.1074219 C 8.4980469 5.9004219 9.4688594 3.9185 11.005859 2.5625 C 11.254859 2.3425 11.3295 1.9826406 11.1875 1.6816406 C 11.0465 1.3796406 10.722578 1.2087656 10.392578 1.2597656 z M 8.3457031 3.4023438 C 7.4917031 4.7683437 6.9980469 6.3804219 6.9980469 8.1074219 C 6.9980469 13.016422 10.983578 17.001953 15.892578 17.001953 C 17.619578 17.001953 19.232656 16.507297 20.597656 15.654297 C 19.162656 18.946297 15.878547 21.25 12.060547 21.25 C 6.9215469 21.25 2.75 17.078453 2.75 11.939453 C 2.75 8.1214531 5.0537031 4.8373437 8.3457031 3.4023438 z M 16.511719 3.75 C 16.145719 3.75 15.816828 3.9696406 15.673828 4.3066406 L 15.070312 5.7304688 L 13.533203 5.9453125 C 13.188203 5.9943125 12.902922 6.2344063 12.794922 6.5664062 C 12.687922 6.8974062 12.778297 7.2599531 13.029297 7.5019531 L 14.152344 8.5859375 L 13.867188 10.003906 C 13.797188 10.352906 13.938562 10.710922 14.226562 10.919922 C 14.514562 11.128922 14.897031 11.151563 15.207031 10.976562 L 16.511719 10.240234 L 17.820312 10.978516 C 18.128312 11.152516 18.510828 11.131781 18.798828 10.925781 C 19.085828 10.720781 19.227109 10.367531 19.162109 10.019531 L 18.869141 8.4550781 L 19.935547 7.53125 C 20.205547 7.29725 20.313891 6.9289375 20.212891 6.5859375 C 20.110891 6.2439375 19.820797 5.9914062 19.466797 5.9414062 L 17.951172 5.7304688 L 17.349609 4.3066406 C 17.206609 3.9696406 16.876719 3.75 16.511719 3.75 z M 16.511719 6.1738281 L 16.736328 6.7050781 C 16.839328 6.9480781 17.061266 7.11925 17.322266 7.15625 L 17.974609 7.2460938 L 17.5625 7.6035156 C 17.3605 7.7775156 17.267406 8.0465937 17.316406 8.3085938 L 17.455078 9.0507812 L 16.880859 8.7246094 C 16.651859 8.5956094 16.371578 8.5956094 16.142578 8.7246094 L 15.591797 9.0351562 L 15.703125 8.4785156 C 15.754125 8.2275156 15.674234 7.9670625 15.490234 7.7890625 L 14.941406 7.2617188 L 15.699219 7.15625 C 15.960219 7.11925 16.184109 6.9480781 16.287109 6.7050781 L 16.511719 6.1738281 z"/></svg>